Coordinates
version=1
nRows=26
nColumns=24
inDegrees=yes

Units are S.I. units (second, meters, Newtons, ...)
Angles are in degrees.

endheader
time	pelvis_tilt	pelvis_list	pelvis_rotation	pelvis_tx	pelvis_ty	pelvis_tz	hip_flexion_r	hip_adduction_r	hip_rotation_r	knee_angle_r	ankle_angle_r	subtalar_angle_r	mtp_angle_r	hip_flexion_l	hip_adduction_l	hip_rotation_l	knee_angle_l	ankle_angle_l	subtalar_angle_l	mtp_angle_l	lumbar_extension	lumbar_bending	lumbar_rotation
      2.77500000	     19.75069091	     -9.90302802	      6.43481999	      0.40566227	      0.97346317	      0.03382678	    -17.89935752	     14.95398556	    -10.63620038	     -2.38277406	      4.55748840	      5.12837036	      6.80999587	     -5.07524778	    -15.39598290	     -3.55423611	    -64.66386123	     -0.25656772	     -7.68827296	     26.54685850	    -25.69213226	     12.00410180	      1.18661384
      2.78000000	     19.61038357	     -9.75612741	      6.51909643	      0.41080070	      0.97356983	      0.03402854	    -18.26621471	     14.89218800	    -10.62698509	     -2.05705399	      4.72415580	      5.18559097	      6.81953991	     -4.06041077	    -15.16248234	     -3.39227719	    -64.55351868	      0.90639016	     -7.64658807	     26.45935938	    -25.59345677	     11.84346656	      1.09960082
      2.78500000	     19.53484186	     -9.53939826	      6.58338834	      0.41592547	      0.97378192	      0.03420205	    -18.71992125	     14.75603687	    -10.58302146	     -1.71903239	      4.90989913	      5.17674091	      6.82938989	     -3.18071302	    -14.82411655	     -3.25058722	    -64.29643301	      1.98466290	     -7.61521498	     26.47060248	    -25.57585511	     11.60617690	      1.02479896
      2.79000000	     19.45258117	     -9.36081815	      6.63507384	      0.42109073	      0.97392470	      0.03437985	    -19.16523745	     14.65121720	    -10.52089305	     -1.38695566	      5.08339726	      5.21089065	      6.83292725	     -2.32039682	    -14.52723039	     -3.15049832	    -63.96808549	      3.08903780	     -7.44181369	     26.45584458	    -25.54647893	     11.40458911	      0.98359612
      2.79500000	     19.38982880	     -9.18356078	      6.66836027	      0.42625312	      0.97405165	      0.03455964	    -19.63399327	     14.54042535	    -10.43056302	     -1.05502266	      5.25533736	      5.23595883	      6.82546716	     -1.51828235	    -14.22516793	     -3.08723819	    -63.54936980	      4.18355712	     -7.17494522	     26.40325017	    -25.54367320	     11.19854939	      0.96018574
      2.80000000	     19.31385125	     -8.98648925	      6.66728182	      0.43147866	      0.97417360	      0.03476710	    -20.08582820	     14.39656028	    -10.35269292	     -0.74805388	      5.42315980	      5.24530065	      6.82211285	     -0.75895645	    -13.89160389	     -3.08594090	    -63.01458757	      5.20935076	     -6.95935516	     26.41100598	    -25.52366350	     10.95723864	      0.95557950
      2.80500000	     19.27936032	     -8.81014393	      6.66995109	      0.43667404	      0.97427969	      0.03496381	    -20.58580669	     14.27465816	    -10.22747360	     -0.42848043	      5.59648931	      5.26423330	      6.81022388	     -0.06865820	    -13.58120384	     -3.08179232	    -62.40053204	      6.22812702	     -6.55002309	     26.40266362	    -25.55400580	     10.73956943	      0.98683923
      2.81000000	     19.28248313	     -8.66057346	      6.65734099	      0.44186268	      0.97437104	      0.03516288	    -21.13697605	     14.17235890	    -10.01595366	     -0.09074397	      5.76473217	      5.29514228	      6.76963974	      0.55088032	    -13.30678264	     -3.12384978	    -61.71398307	      7.24491237	     -6.02952586	     26.26514876	    -25.62659490	     10.54936174	      1.06546696
      2.81500000	     19.27072561	     -8.50514699	      6.60912605	      0.44711563	      0.97444789	      0.03542128	    -21.66572445	     14.05152531	     -9.82670095	      0.22071495	      5.91300569	      5.29630946	      6.69897172	      1.13163289	    -13.02972738	     -3.23755183	    -60.91914444	      8.20505937	     -5.55412664	     26.02346631	    -25.68112667	     10.33405026	      1.14975871
      2.82000000	     19.27159867	     -8.33127148	      6.55529171	      0.45232319	      0.97450513	      0.03564427	    -22.19479860	     13.90452025	     -9.62604374	      0.50695627	      6.09959386	      5.28704033	      6.64647023	      1.66536404	    -12.71857112	     -3.34926764	    -60.02959859	      9.07055000	     -5.05942177	     25.86638915	    -25.75699428	     10.10209912	      1.25613882
      2.82500000	     19.27158358	     -8.15847121	      6.48707704	      0.45750231	      0.97454199	      0.03587323	    -22.70944914	     13.74806962	     -9.40435661	      0.76664759	      6.29399751	      5.27356248	      6.60831269	      2.16519654	    -12.40089977	     -3.46960668	    -59.04735811	      9.84783112	     -4.56543365	     25.77350698	    -25.83682619	      9.86469585	      1.38506475
      2.83000000	     19.30724325	     -8.00472470	      6.38438471	      0.46277850	      0.97459139	      0.03619297	    -23.27923922	     13.60414037	     -9.15351399	      1.04449359	      6.44680006	      5.24956506	      6.53629871	      2.57036396	    -12.13955983	     -3.71081301	    -57.97064153	     10.60555080	     -4.07172988	     25.58828114	    -25.94893676	      9.62966430	      1.53403011
      2.83500000	     19.32335481	     -7.83717838	      6.28510975	      0.46795340	      0.97459121	      0.03645857	    -23.79147237	     13.43633054	     -8.90318902	      1.26236258	      6.65748856	      5.22201735	      6.49828313	      2.97504086	    -11.83671557	     -3.90539043	    -56.80617442	     11.23085371	     -3.59203232	     25.49087517	    -26.05192961	      9.38463829	      1.70279261
      2.84000000	     19.38598233	     -7.68027529	      6.16074429	      0.47322466	      0.97463736	      0.03679121	    -24.35948133	     13.28113729	     -8.70361334	      1.49578478	      6.81117204	      5.21375808	      6.46932194	      3.26826874	    -11.57476654	     -4.19681095	    -55.53322965	     11.81683673	     -3.14385581	     25.35931934	    -26.19577552	      9.13793416	      1.88669145
      2.84500000	     19.47311334	     -7.51937483	      6.02531995	      0.47852668	      0.97469458	      0.03713282	    -24.94273604	     13.12183573	     -8.55692598	      1.71393581	      6.95435209	      5.21825862	      6.47721698	      3.48808605	    -11.31916541	     -4.54463401	    -54.16332446	     12.32011985	     -2.74432626	     25.18060723	    -26.36585183	      8.88363622	      2.07367761
      2.85000000	     19.54106149	     -7.35328325	      5.87186121	      0.48376289	      0.97471460	      0.03746924	    -25.47816159	     12.93497135	     -8.34718048	      1.86896847	      7.15137231	      5.21713174	      6.50698696	      3.69214111	    -11.04531563	     -4.89486796	    -52.69831579	     12.71894696	     -2.38393805	     25.04566306	    -26.52331916	      8.61769660	      2.28186616
      2.85500000	     19.60776342	     -7.17731937	      5.69734421	      0.48899731	      0.97469714	      0.03782545	    -26.01452689	     12.72131076	     -8.08056254	      2.00937128	      7.40540480	      5.18380874	      6.52862786	      3.85642511	    -10.76613379	     -5.29742009	    -51.14663725	     13.00571346	     -2.08698433	     24.93580845	    -26.68325251	      8.33127713	      2.51526742
      2.86000000	     19.74363612	     -6.99103929	      5.49879674	      0.49431374	      0.97475897	      0.03821840	    -26.64030400	     12.49056780	     -7.81400184	      2.16730690	      7.58808974	      5.18183851	      6.52393252	      3.87008328	    -10.49439356	     -5.79765886	    -49.46824066	     13.28494833	     -1.89333512	     24.79037526	    -26.90957056	      8.02385330	      2.74157249
      2.86500000	     19.87210233	     -6.79446227	      5.28666550	      0.49962460	      0.97480358	      0.03860859	    -27.23184521	     12.23770924	     -7.57338012	      2.27408051	      7.82771523	      5.19649378	      6.52119061	      3.84796482	    -10.20727049	     -6.32382072	    -47.69371273	     13.44184375	     -1.73959442	     24.67199722	    -27.12980361	      7.70008014	      2.98387941
      2.87000000	     20.02920828	     -6.57953793	      5.06105871	      0.50496833	      0.97487647	      0.03898321	    -27.84694076	     11.95699009	     -7.35872517	      2.36223158	      8.07945890	      5.24354560	      6.51387883	      3.73504240	     -9.90110469	     -6.90461306	    -45.80596222	     13.51223220	     -1.64889563	     24.58174775	    -27.37830161	      7.35464276	      3.22850940
      2.87500000	     20.22682442	     -6.32876799	      4.82575775	      0.51037009	      0.97499666	      0.03934787	    -28.50566187	     11.63511402	     -7.18725600	      2.44221689	      8.35064562	      5.34698679	      6.49700916	      3.50928385	     -9.55371183	     -7.53394412	    -43.79063090	     13.48765136	     -1.61044837	     24.53632371	    -27.66398530	      6.96782774	      3.45524268
      2.88000000	     20.43915020	     -6.09621673	      4.54277382	      0.51578240	      0.97512638	      0.03973771	    -29.15493188	     11.30150659	     -6.98949427	      2.46789022	      8.65690231	      5.45006757	      6.50228943	      3.20956552	     -9.22542656	     -8.25482655	    -41.67711964	     13.36357729	     -1.61448624	     24.51872215	    -27.96579585	      6.58174757	      3.76082352
      2.88500000	     20.72329555	     -5.80016202	      4.26164918	      0.52135010	      0.97533743	      0.04010253	    -29.89916584	     10.90883751	     -6.90985146	      2.51308501	      8.91318684	      5.64542436	      6.49678433	      2.74265697	     -8.82692476	     -9.05611550	    -39.41462997	     13.19610211	     -1.65467503	     24.57247435	    -28.32686126	      6.13030541	      3.98284575
      2.89000000	     21.02571012	     -5.50965186	      3.95417867	      0.52692250	      0.97554532	      0.04045007	    -30.64947839	     10.49827759	     -6.80543390	      2.52997618	      9.24593797	      5.88035922	      6.50951158	      2.20592644	     -8.41699527	     -9.89561400	    -37.05895206	     12.89990054	     -1.69111358	     24.66199754	    -28.70492960	      5.67617692	      4.25909476
      2.89500000	     21.36067084	     -5.16074020	      3.64978777	      0.53268409	      0.97579272	      0.04074366	    -31.44249191	     10.03223114	     -6.86876711	      2.54860399	      9.51995976	      6.22512414	      6.50193200	      1.55362792	     -7.93040412	    -10.81592507	    -34.57231514	     12.53507914	     -1.70635792	     24.90996448	    -29.09373594	      5.16519746	      4.45232474
      2.90000000	     21.73475204	     -4.80744056	      3.35191332	      0.53847127	      0.97601416	      0.04097238	    -32.27294696	      9.55540236	     -6.94351585	      2.55418400	      9.89457196	      6.65948241	      6.49020666	      0.82224957	     -7.41334926	    -11.73228197	    -32.00892729	     12.03788537	     -1.66067654	     25.36393907	    -29.51567721	      4.65515391	      4.64299141
